<svg id="visual" viewBox="0 0 900 600" width="900" height="600" xmlns="http://www.w3.org/2000/svg" xmlns:xlink="http://www.w3.org/1999/xlink" version="1.1"><rect x="0" y="0" width="900" height="600" fill="#101020"></rect><path d="M0 485L16.7 489.7C33.3 494.3 66.7 503.7 100 499.2C133.3 494.7 166.7 476.3 200 461.5C233.3 446.7 266.7 435.3 300 437.5C333.3 439.7 366.7 455.3 400 466C433.3 476.7 466.7 482.3 500 475.2C533.3 468 566.7 448 600 449.5C633.3 451 666.7 474 700 487.2C733.3 500.3 766.7 503.7 800 492.5C833.3 481.3 866.7 455.7 883.3 442.8L900 430" fill="none" stroke-linecap="round" stroke-linejoin="miter" stroke="#50628E" stroke-width="2"></path></svg>